# xmcd
#
# Track frame offsets: 
#        150
#        11913
#        24864
#        42186
#        62127
#        77675
#        91474
#        111341
#        127856
#        144089
#        157827
#        177100
#        191892
#        209653
#
# Disc length: 2982 seconds
#
# Revision: 0
# Processed by: cddbd v1.5.2PL0 Copyright (c) Steve Scherf et al.
# Submitted via: ExactAudioCopy v1.0b2
#
DISCID=b40ba40e
DTITLE=モーニング娘。 - COVER YOU
DYEAR=2008
DGENRE=JPOP
TTITLE0=渚のシンドバッド 
TTITLE1=どうにもとまらない
TTITLE2=居酒屋
TTITLE3=ペッパー警部 (ALBUM Ver.) 
TTITLE4=白い蝶のサンバ
TTITLE5=青春時代
TTITLE6=林檎殺人事件
TTITLE7=ロマンス (ALBUM Ver.)
TTITLE8=街の灯り
TTITLE9=恋のダイヤル6700
TTITLE10=ピンポンパン体操
TTITLE11=わたしの青い鳥
TTITLE12=ジョニィへの伝言
TTITLE13=UFO
EXTD=
EXTT0=
EXTT1=
EXTT2=
EXTT3=
EXTT4=
EXTT5=
EXTT6=
EXTT7=
EXTT8=
EXTT9=
EXTT10=
EXTT11=
EXTT12=
EXTT13=
PLAYORDER=
